<?xml version="1.0" encoding="UTF-8"?>
<svg id="Layer_1" data-name="Layer 1" xmlns="http://www.w3.org/2000/svg" viewBox="0 0 382.68 382.68">
  <defs>
    <style>
      .cls-1 {
        fill: #acabad;
      }

      .cls-2 {
        fill: #3b3a3c;
      }

      .cls-3 {
        fill: #3c3c3d;
      }

      .cls-4 {
        fill: none;
        stroke: #3c3c3d;
        stroke-miterlimit: 10;
        stroke-width: 11px;
      }
    </style>
  </defs>
  <g>
    <path class="cls-3" d="M94.59,344.73l-11.28-42.77h3.08l6.23,24.13c1.43,5.5,2.73,10.65,3.54,14.67h.16c.7-4,2.24-9.09,3.9-14.71l7.03-24.1h2.92l6.35,23.91c1.36,5.2,2.78,10.53,3.46,14.89h.14c.97-4.63,2.33-9.28,3.9-14.72l7.01-24.08h3.11l-12.82,42.77h-2.89l-6.46-24.62c-1.67-6.27-2.7-10.5-3.3-14.5h-.13c-.7,3.97-1.89,8.19-3.82,14.47l-7.27,24.65h-2.87Z"/>
    <path class="cls-3" d="M149.09,301.96v42.77h-3.01v-42.77h3.01Z"/>
    <path class="cls-3" d="M164.59,340c2.41,1.65,5.76,2.82,9.34,2.82,6.39,0,10.31-3.63,10.31-8.9,0-4.79-2.49-7.61-8.66-9.99-6.88-2.44-11.01-5.98-11.01-11.8,0-6.27,5.17-10.83,12.44-10.83,4.01,0,7.06,1.03,8.52,2.01l-1.17,2.54c-1.16-.81-3.89-2.03-7.55-2.03-6.9,0-9.25,4.43-9.25,7.79,0,4.74,2.74,7.17,8.87,9.57,7.06,2.86,10.8,6.06,10.8,12.47s-4.44,11.75-13.56,11.75c-3.7,0-8-1.21-10.22-2.87l1.14-2.52Z"/>
    <path class="cls-3" d="M221.97,323.47h-17.1v18.7h19.13v2.55h-22.14v-42.77h21.13v2.55h-18.12v16.4h17.1v2.55Z"/>
    <path class="cls-3" d="M247.46,304.5h-13.94v-2.54h30.9v2.54h-13.94v40.23h-3.01v-40.23Z"/>
    <path class="cls-3" d="M278.35,301.96v18.81h23.59v-18.81h3.01v42.77h-3.01v-21.4h-23.59v21.4h-3.01v-42.77h3.01Z"/>
  </g>
  <circle class="cls-4" cx="165.27" cy="96.97" r="66.23" transform="translate(-20.16 145.26) rotate(-45)"/>
  <path class="cls-1" d="M206.09,133.22c-22.32,20.42-56.97,18.88-77.39-3.44-16.76-18.32-18.72-44.95-6.53-65.2-16.19,20.69-15.56,50.64,2.76,70.67,20.42,22.32,55.07,23.86,77.39,3.44,4-3.66,7.31-7.77,9.97-12.19-1.85,2.37-3.91,4.62-6.2,6.71Z"/>
  <path class="cls-2" d="M215.07,154.73s7.97-3.98,13.94-13.94l56.77,47.8s8.96,14.94-1.99,21.91c0,0-10.95,5.98-19.92-1.99l-48.8-53.78Z"/>
  <g>
    <path class="cls-3" d="M23.52,228.43c2.63-.62,6.56-1.05,10.78-1.05,6.87,0,11.67,1.61,15.17,4.86,4.67,4.21,7.08,11.43,7.08,21.99s-2.84,18.88-7.57,23.12c-3.72,3.53-9.09,5.28-16.69,5.28-3.37,0-6.7-.34-8.77-.61v-53.59ZM34.09,273.77c.56.16,1.34.16,1.91.16,5.13,0,9.57-5,9.57-20.05,0-11.22-2.91-18.02-9.35-18.02-.75,0-1.47.03-2.12.26v37.65Z"/>
    <path class="cls-3" d="M99.13,258.2h-12.43v14.79h14.03v9.21h-24.66v-54.57h23.74v9.21h-13.1v12.55h12.43v8.82Z"/>
    <path class="cls-3" d="M126.63,237.45h-9.63v-9.83h29.95v9.83h-9.69v44.75h-10.63v-44.75Z"/>
    <path class="cls-3" d="M188.44,258.2h-12.43v14.79h14.03v9.21h-24.66v-54.57h23.74v9.21h-13.1v12.55h12.43v8.82Z"/>
    <path class="cls-3" d="M210.07,227.62h10.57v24.57h.23c.88-2.33,1.71-4.69,2.66-7.08l7.26-17.48h11.69l-12.24,23.76,12.4,30.81h-11.6l-7.95-22.58-2.46,4.45v18.13h-10.57v-54.57Z"/>
    <path class="cls-3" d="M265.9,237.45h-9.63v-9.83h29.95v9.83h-9.69v44.75h-10.63v-44.75Z"/>
    <path class="cls-3" d="M315.27,227.62v54.57h-10.63v-54.57h10.63Z"/>
    <path class="cls-3" d="M345.1,282.19l-12.18-54.57h11.74l3.87,23.56c.95,5.87,2.06,12.54,2.79,18.93h.2c.7-6.47,1.6-13.01,2.57-19.16l3.73-23.34h11.66l-12.47,54.57h-11.89Z"/>
  </g>
</svg>