<?xml version="1.0" encoding="UTF-8"?>
<svg id="Layer_1" data-name="Layer 1" xmlns="http://www.w3.org/2000/svg" viewBox="0 0 500 500">
  <defs>
    <style>
      .cls-1 {
        fill: #3a3a3c;
      }

      .cls-2 {
        fill: none;
        stroke: #3b3b3d;
        stroke-miterlimit: 10;
        stroke-width: 15.13px;
      }

      .cls-3 {
        opacity: .09;
      }

      .cls-4 {
        fill: #3b3b3d;
      }

      .cls-5 {
        fill: #aaaaac;
      }
    </style>
  </defs>
  <g>
    <path class="cls-4" d="M127.5,422.54l-14.28-54.15h3.9l7.89,30.55c1.81,6.97,3.45,13.48,4.48,18.58h.2c.88-5.06,2.83-11.51,4.94-18.62l8.9-30.51h3.7l8.03,30.27c1.73,6.59,3.51,13.34,4.38,18.86h.18c1.23-5.86,2.95-11.75,4.94-18.64l8.88-30.49h3.94l-16.23,54.15h-3.66l-8.17-31.17c-2.11-7.93-3.41-13.3-4.18-18.36h-.16c-.88,5.02-2.39,10.36-4.84,18.32l-9.2,31.21h-3.64Z"/>
    <path class="cls-4" d="M196.5,368.39v54.15h-3.82v-54.15h3.82Z"/>
    <path class="cls-4" d="M216.12,416.55c3.05,2.09,7.29,3.58,11.83,3.58,8.09,0,13.06-4.6,13.06-11.27,0-6.07-3.15-9.64-10.97-12.65-8.72-3.09-13.94-7.57-13.94-14.94,0-7.93,6.55-13.72,15.75-13.72,5.08,0,8.94,1.31,10.79,2.55l-1.49,3.21c-1.47-1.02-4.92-2.57-9.56-2.57-8.74,0-11.71,5.6-11.71,9.86,0,6.01,3.47,9.08,11.23,12.11,8.94,3.62,13.68,7.67,13.68,15.79s-5.62,14.88-17.17,14.88c-4.68,0-10.12-1.53-12.93-3.64l1.45-3.19Z"/>
    <path class="cls-4" d="M288.77,395.63h-21.65v23.68h24.22v3.23h-28.04v-54.15h26.75v3.23h-22.94v20.77h21.65v3.23Z"/>
    <path class="cls-4" d="M321.05,371.61h-17.65v-3.21h39.12v3.21h-17.65v50.93h-3.82v-50.93Z"/>
    <path class="cls-4" d="M360.15,368.39v23.82h29.87v-23.82h3.82v54.15h-3.82v-27.09h-29.87v27.09h-3.82v-54.15h3.82Z"/>
  </g>
  <g>
    <circle class="cls-2" cx="216.98" cy="108.85" r="83.85"/>
    <path class="cls-5" d="M268.67,154.75c-28.26,25.85-72.13,23.9-97.98-4.35-21.23-23.2-23.7-56.91-8.27-82.55-20.5,26.2-19.7,64.12,3.5,89.48,25.85,28.26,69.72,30.21,97.98,4.35,5.06-4.63,9.26-9.84,12.62-15.43-2.34,3-4.95,5.85-7.85,8.5Z"/>
    <path class="cls-1" d="M280.03,181.98s10.09-5.04,17.65-17.65l71.87,60.52s11.35,18.91-2.52,27.74c0,0-13.87,7.57-25.22-2.52l-61.78-68.09Z"/>
    <g class="cls-3">
      <path d="M166.24,148.34l-3.2,2.47-.17-.23,3.2-2.47.17.23Z"/>
      <path d="M165.83,150.81c.2-.17.35-.3.51-.46l.17.2-.39.35h0c.35-.08.78.03,1.08.4.18.21.54.86-.29,1.55l-1.33,1.11-.18-.22,1.31-1.09c.4-.34.64-.8.26-1.25-.26-.31-.7-.39-1.06-.24-.07.03-.15.08-.22.13l-1.37,1.14-.18-.22,1.68-1.4Z"/>
      <path d="M170.41,154.99c-.17.13-.34.28-.56.49l-1.26,1.16c-.54.5-.92.64-1.25.61-.36-.02-.69-.25-.91-.49-.22-.24-.41-.57-.44-.84l.24-.08c.04.24.15.52.4.79.41.44.94.55,1.56-.02l.3-.28h0c-.32.08-.74,0-1.09-.37-.49-.53-.37-1.34.2-1.87.74-.68,1.58-.55,2.01-.08.38.42.35.84.25,1.09h0s.37-.31.37-.31l.18.19ZM169.38,155.51c.08-.07.14-.14.18-.21.18-.32.2-.76-.12-1.11-.41-.45-1.07-.42-1.63.1-.48.44-.66,1.07-.2,1.57.26.28.68.38,1.08.21.09-.04.18-.1.26-.17l.43-.39Z"/>
      <path d="M170.52,157.12c-.64.66-.54,1.27-.12,1.68.3.29.51.39.69.44l-.1.21c-.12-.03-.42-.15-.78-.5-.59-.58-.54-1.37.05-1.97.67-.69,1.49-.73,2.02-.21.67.66.18,1.42-.11,1.72-.06.06-.09.09-.13.12l-1.52-1.49ZM171.99,158.24c.29-.28.59-.84.09-1.33-.45-.44-1.05-.23-1.4.05l1.3,1.27Z"/>
      <path d="M173.55,159.03c.17-.2.3-.35.44-.53l.2.18-.33.4h0c.33-.13.78-.09,1.13.23.21.18.66.77-.06,1.58l-1.14,1.29-.21-.19,1.13-1.27c.35-.39.51-.88.06-1.28-.3-.27-.75-.28-1.09-.08-.06.04-.14.1-.2.17l-1.18,1.34-.21-.19,1.45-1.64Z"/>
      <path d="M177.81,163.46h0c.11-.02.28-.06.41-.08l1.45-.25.28.21-1.64.26.05,2.14-.28-.21-.04-1.91-.42.07-.72.96-.23-.17,2.55-3.41.23.17-1.65,2.22Z"/>
      <path d="M182.26,166.61c-.59.9-1.46.87-2,.51-.62-.41-.78-1.21-.28-1.97.55-.82,1.38-.91,1.98-.52.66.44.78,1.24.29,1.97ZM180.23,165.3c-.4.6-.32,1.3.18,1.63.5.33,1.19.14,1.6-.47.29-.44.45-1.21-.18-1.63-.61-.41-1.25-.04-1.6.47Z"/>
      <path d="M186.85,166.07l-1.79,3.11c-.1.18-.22.41-.31.59l-.22-.13.26-.48h-.01c-.29.2-.73.28-1.19.01-.61-.35-.78-1.13-.35-1.88.48-.83,1.29-1.06,1.9-.7.43.25.57.63.56.91h.01s.91-1.57.91-1.57l.25.14ZM185.35,168.11c.04-.07.08-.16.11-.24.11-.39-.03-.83-.44-1.07-.54-.31-1.16-.04-1.53.61-.32.56-.34,1.24.25,1.58.36.2.83.16,1.17-.19.05-.05.1-.11.14-.19l.29-.5Z"/>
      <path d="M186.94,169.28c-.41.82-.12,1.37.41,1.64.38.19.61.21.79.21l-.03.23c-.13,0-.45-.02-.9-.24-.74-.37-.93-1.14-.56-1.89.43-.86,1.19-1.16,1.86-.82.84.42.61,1.29.43,1.67-.04.07-.06.11-.09.15l-1.9-.95ZM188.69,169.89c.19-.36.31-.98-.32-1.29-.57-.28-1.07.11-1.31.48l1.63.81Z"/>
      <path d="M190.37,170.3c.12-.26.22-.54.32-.8l.24.11-.22.54h.02c.26-.28.65-.42,1.01-.26.04.02.07.04.1.06l-.11.25s-.07-.04-.12-.06c-.36-.16-.76.04-1.01.44-.05.07-.09.15-.13.24l-.63,1.46-.26-.11.8-1.85Z"/>
      <path d="M195.09,169.78l.27.09-.6,1.8h.01c.13-.12.31-.23.5-.27.19-.04.39-.04.6.03.26.09.91.45.57,1.46l-.55,1.65-.27-.09.54-1.62c.16-.49.12-1-.44-1.19-.39-.13-.8.04-1.03.34-.06.07-.09.15-.13.26l-.56,1.67-.27-.09,1.35-4.04Z"/>
      <path d="M197.98,173.62c-.23.89.16,1.37.73,1.52.41.11.64.08.82.05v.24c-.11.03-.43.08-.91-.05-.8-.21-1.14-.92-.93-1.74.24-.93.93-1.37,1.65-1.18.91.24.86,1.14.75,1.54-.02.08-.03.12-.05.17l-2.05-.54ZM199.81,173.87c.11-.39.1-1.02-.57-1.2-.61-.16-1.02.32-1.19.74l1.76.46Z"/>
      <path d="M201.52,173.93c.06-.28.11-.57.15-.85l.26.05-.11.57h.02c.2-.33.55-.55.93-.46.04,0,.08.02.11.04l-.06.27s-.08-.03-.13-.04c-.39-.08-.73.2-.91.63-.03.08-.06.17-.08.26l-.33,1.55-.28-.06.42-1.97Z"/>
      <path d="M203.47,176.16c.03-.15.15-.25.29-.22.14.02.22.15.19.31-.02.14-.14.24-.28.22-.14-.02-.22-.16-.19-.3ZM203.73,175.33l.45-2.94.34.06-.56,2.93-.23-.04Z"/>
    </g>
  </g>
  <g>
    <path class="cls-4" d="M37.51,275.31c3.33-.78,8.31-1.33,13.64-1.33,8.7,0,14.77,2.04,19.2,6.15,5.91,5.33,8.97,14.47,8.97,27.84s-3.59,23.9-9.58,29.27c-4.71,4.46-11.51,6.68-21.13,6.68-4.26,0-8.48-.43-11.1-.78v-67.84ZM50.89,332.71c.71.21,1.7.21,2.41.21,6.49,0,12.11-6.33,12.11-25.38,0-14.2-3.69-22.81-11.83-22.81-.95,0-1.86.04-2.69.33v47.66Z"/>
    <path class="cls-4" d="M133.24,312.99h-15.74v18.72h17.76v11.66h-31.22v-69.09h30.05v11.66h-16.59v15.88h15.74v11.17Z"/>
    <path class="cls-4" d="M168.06,286.72h-12.19v-12.44h37.92v12.44h-12.27v56.65h-13.46v-56.65Z"/>
    <path class="cls-4" d="M246.31,312.99h-15.74v18.72h17.76v11.66h-31.22v-69.09h30.05v11.66h-16.59v15.88h15.74v11.17Z"/>
    <path class="cls-4" d="M273.69,274.28h13.38v31.1h.29c1.12-2.95,2.17-5.94,3.36-8.97l9.19-22.13h14.8l-15.49,30.08,15.7,39.01h-14.68l-10.06-28.59-3.12,5.64v22.95h-13.38v-69.09Z"/>
    <path class="cls-4" d="M344.38,286.72h-12.19v-12.44h37.92v12.44h-12.27v56.65h-13.46v-56.65Z"/>
    <path class="cls-4" d="M406.89,274.28v69.09h-13.46v-69.09h13.46Z"/>
    <path class="cls-4" d="M444.65,343.37l-15.42-69.09h14.86l4.9,29.83c1.2,7.43,2.61,15.87,3.54,23.96h.25c.89-8.2,2.03-16.47,3.25-24.25l4.72-29.54h14.75l-15.79,69.09h-15.05Z"/>
  </g>
  <path d="M253.53,371.95c1.93,0,1.93-3,0-3s-1.93,3,0,3h0Z"/>
</svg>