<?xml version="1.0" encoding="UTF-8"?>
<svg id="Layer_1" data-name="Layer 1" xmlns="http://www.w3.org/2000/svg" viewBox="0 0 382.68 382.68">
  <defs>
    <style>
      .cls-1 {
        fill: #010101;
      }

      .cls-2 {
        fill: #acabad;
      }

      .cls-3 {
        fill: #3b3a3c;
      }

      .cls-4 {
        fill: #3c3c3d;
      }

      .cls-5 {
        fill: none;
        stroke: #3c3c3d;
        stroke-miterlimit: 10;
        stroke-width: 11.95px;
      }

      .cls-6 {
        opacity: .09;
      }
    </style>
  </defs>
  <g>
    <path class="cls-4" d="M94.59,344.73l-11.28-42.77h3.08l6.23,24.13c1.43,5.5,2.73,10.65,3.54,14.67h.16c.7-4,2.24-9.09,3.9-14.71l7.03-24.1h2.92l6.35,23.91c1.36,5.2,2.78,10.53,3.46,14.89h.14c.97-4.63,2.33-9.28,3.9-14.72l7.01-24.08h3.11l-12.82,42.77h-2.89l-6.46-24.62c-1.67-6.27-2.7-10.5-3.3-14.5h-.13c-.7,3.97-1.89,8.19-3.82,14.47l-7.27,24.65h-2.87Z"/>
    <path class="cls-4" d="M149.09,301.96v42.77h-3.01v-42.77h3.01Z"/>
    <path class="cls-4" d="M164.59,340c2.41,1.65,5.76,2.82,9.34,2.82,6.39,0,10.31-3.63,10.31-8.9,0-4.79-2.49-7.61-8.66-9.99-6.88-2.44-11.01-5.98-11.01-11.8,0-6.27,5.17-10.83,12.44-10.83,4.01,0,7.06,1.03,8.52,2.01l-1.17,2.54c-1.16-.81-3.89-2.03-7.55-2.03-6.9,0-9.25,4.43-9.25,7.79,0,4.74,2.74,7.17,8.87,9.57,7.06,2.86,10.8,6.06,10.8,12.47s-4.44,11.75-13.56,11.75c-3.7,0-8-1.21-10.22-2.87l1.14-2.52Z"/>
    <path class="cls-4" d="M221.97,323.47h-17.1v18.7h19.13v2.55h-22.14v-42.77h21.13v2.55h-18.12v16.4h17.1v2.55Z"/>
    <path class="cls-4" d="M247.46,304.5h-13.94v-2.54h30.9v2.54h-13.94v40.23h-3.01v-40.23Z"/>
    <path class="cls-4" d="M278.35,301.96v18.81h23.59v-18.81h3.01v42.77h-3.01v-21.4h-23.59v21.4h-3.01v-42.77h3.01Z"/>
  </g>
  <g>
    <circle class="cls-5" cx="165.27" cy="96.97" r="66.23"/>
    <path class="cls-2" d="M206.09,133.22c-22.32,20.42-56.97,18.88-77.39-3.44-16.76-18.32-18.72-44.95-6.53-65.2-16.19,20.69-15.56,50.64,2.76,70.67,20.42,22.32,55.07,23.86,77.39,3.44,4-3.66,7.31-7.77,9.97-12.19-1.85,2.37-3.91,4.62-6.2,6.71Z"/>
    <path class="cls-3" d="M215.07,154.73s7.97-3.98,13.94-13.94l56.77,47.8s8.96,14.94-1.99,21.91c0,0-10.95,5.98-19.92-1.99l-48.8-53.78Z"/>
    <g class="cls-6">
      <path class="cls-1" d="M125.2,128.15l-2.53,1.95-.14-.18,2.53-1.95.14.18Z"/>
      <path class="cls-1" d="M124.87,130.11c.16-.13.28-.24.4-.36l.13.16-.3.28h0c.28-.06.62.03.86.31.14.17.42.68-.23,1.23l-1.05.87-.14-.17,1.03-.86c.32-.27.5-.63.2-.99-.2-.25-.55-.31-.84-.19-.05.02-.12.06-.18.11l-1.08.9-.14-.17,1.33-1.11Z"/>
      <path class="cls-1" d="M128.48,133.41c-.13.11-.27.22-.45.38l-1,.92c-.43.4-.72.5-.99.48-.29-.02-.55-.2-.72-.38-.18-.19-.32-.45-.35-.66l.19-.06c.03.19.12.41.32.63.32.35.74.44,1.24-.02l.24-.22h0c-.25.06-.58,0-.86-.29-.39-.42-.29-1.06.16-1.47.59-.54,1.24-.44,1.59-.07.3.33.27.66.2.86h0s.29-.24.29-.24l.14.15ZM127.68,133.82c.06-.06.11-.11.14-.17.14-.26.16-.6-.1-.87-.33-.35-.84-.33-1.29.08-.38.35-.52.85-.16,1.24.21.22.54.3.85.17.07-.03.15-.08.2-.13l.34-.31Z"/>
      <path class="cls-1" d="M128.57,135.09c-.51.52-.43,1-.09,1.33.24.23.41.3.54.35l-.08.17c-.1-.03-.33-.12-.62-.4-.47-.46-.42-1.08.04-1.56.53-.54,1.17-.58,1.6-.17.53.52.14,1.12-.09,1.35-.04.05-.07.07-.1.09l-1.2-1.17ZM129.73,135.97c.23-.22.47-.66.07-1.05-.36-.35-.83-.18-1.1.04l1.03,1.01Z"/>
      <path class="cls-1" d="M130.97,136.6c.14-.16.24-.28.35-.42l.16.14-.26.32h0c.26-.1.61-.07.89.18.16.14.52.61-.04,1.25l-.9,1.02-.17-.15.89-1.01c.27-.31.4-.7.05-1.01-.24-.21-.6-.22-.86-.06-.05.03-.11.08-.16.13l-.93,1.05-.17-.15,1.15-1.3Z"/>
      <path class="cls-1" d="M134.33,140.1h0c.09-.02.22-.05.33-.06l1.15-.2.22.17-1.3.21.04,1.69-.22-.16-.03-1.51-.33.06-.57.76-.18-.13,2.01-2.7.18.13-1.31,1.75Z"/>
      <path class="cls-1" d="M137.84,142.58c-.47.71-1.15.69-1.58.41-.49-.33-.61-.96-.22-1.55.43-.65,1.09-.72,1.56-.41.52.35.62.98.23,1.56ZM136.24,141.55c-.31.47-.25,1.03.14,1.29.39.26.94.11,1.26-.37.23-.35.35-.96-.15-1.29-.48-.32-.99-.03-1.26.37Z"/>
      <path class="cls-1" d="M141.47,142.16l-1.42,2.46c-.08.14-.18.32-.25.47l-.18-.1.2-.38h-.01c-.23.16-.58.22-.94,0-.49-.28-.61-.9-.28-1.48.38-.66,1.02-.84,1.5-.55.34.2.45.5.44.72h0s.72-1.24.72-1.24l.19.11ZM140.29,143.77c.03-.05.07-.13.08-.19.08-.3-.02-.66-.34-.84-.43-.25-.92-.03-1.21.48-.26.44-.27.98.2,1.25.28.16.65.13.93-.15.04-.04.08-.09.11-.15l.23-.39Z"/>
      <path class="cls-1" d="M141.55,144.69c-.32.65-.1,1.08.32,1.29.3.15.48.17.62.17l-.03.18c-.1,0-.35-.01-.71-.19-.59-.29-.74-.9-.44-1.49.34-.68.94-.91,1.47-.65.67.33.48,1.02.34,1.32-.03.06-.04.09-.07.12l-1.5-.75ZM142.92,145.18c.15-.28.24-.77-.25-1.02-.45-.22-.84.08-1.04.38l1.29.64Z"/>
      <path class="cls-1" d="M144.25,145.5c.09-.21.18-.43.25-.63l.19.08-.18.43h.01c.21-.22.51-.33.8-.21.03.01.06.03.08.05l-.09.2s-.06-.03-.1-.05c-.29-.12-.6.04-.8.35-.04.06-.07.12-.1.19l-.5,1.15-.21-.09.63-1.46Z"/>
      <path class="cls-1" d="M147.98,145.09l.21.07-.47,1.42h0c.1-.1.24-.18.4-.21.15-.04.31-.03.48.02.21.07.72.35.45,1.16l-.43,1.3-.21-.07.43-1.28c.13-.39.09-.79-.35-.94-.31-.1-.63.03-.81.27-.04.06-.07.12-.1.2l-.44,1.32-.21-.07,1.06-3.19Z"/>
      <path class="cls-1" d="M150.26,148.12c-.19.7.12,1.08.58,1.2.32.08.5.06.64.04v.19c-.09.02-.34.06-.72-.04-.63-.17-.9-.73-.73-1.37.19-.73.73-1.08,1.3-.93.72.19.68.9.59,1.22-.02.06-.02.1-.04.13l-1.62-.43ZM151.71,148.32c.09-.31.08-.81-.45-.95-.48-.13-.81.25-.94.58l1.39.37Z"/>
      <path class="cls-1" d="M153.06,148.37c.05-.22.09-.45.12-.67l.2.04-.09.45h.01c.16-.26.43-.43.74-.37.03,0,.06.02.09.03l-.04.21s-.06-.02-.1-.03c-.3-.06-.58.16-.72.5-.03.06-.05.14-.06.21l-.26,1.23-.22-.05.33-1.56Z"/>
      <path class="cls-1" d="M154.6,150.13c.02-.12.11-.2.23-.18.11.02.17.12.15.24-.02.11-.11.19-.22.17-.11-.02-.17-.13-.15-.24ZM154.8,149.47l.36-2.33.27.05-.44,2.31-.18-.03Z"/>
    </g>
  </g>
  <g>
    <path class="cls-4" d="M23.52,228.43c2.63-.62,6.56-1.05,10.78-1.05,6.87,0,11.67,1.61,15.17,4.86,4.67,4.21,7.08,11.43,7.08,21.99s-2.84,18.88-7.57,23.12c-3.72,3.53-9.09,5.28-16.69,5.28-3.37,0-6.7-.34-8.77-.61v-53.59ZM34.09,273.77c.56.16,1.34.16,1.91.16,5.13,0,9.57-5,9.57-20.05,0-11.22-2.91-18.02-9.35-18.02-.75,0-1.47.03-2.12.26v37.65Z"/>
    <path class="cls-4" d="M99.13,258.2h-12.43v14.79h14.03v9.21h-24.66v-54.57h23.74v9.21h-13.1v12.55h12.43v8.82Z"/>
    <path class="cls-4" d="M126.63,237.45h-9.63v-9.83h29.95v9.83h-9.69v44.75h-10.63v-44.75Z"/>
    <path class="cls-4" d="M188.44,258.2h-12.43v14.79h14.03v9.21h-24.66v-54.57h23.74v9.21h-13.1v12.55h12.43v8.82Z"/>
    <path class="cls-4" d="M210.07,227.62h10.57v24.57h.23c.88-2.33,1.71-4.69,2.66-7.08l7.26-17.48h11.69l-12.24,23.76,12.4,30.81h-11.6l-7.95-22.58-2.46,4.45v18.13h-10.57v-54.57Z"/>
    <path class="cls-4" d="M265.9,237.45h-9.63v-9.83h29.95v9.83h-9.69v44.75h-10.63v-44.75Z"/>
    <path class="cls-4" d="M315.27,227.62v54.57h-10.63v-54.57h10.63Z"/>
    <path class="cls-4" d="M345.1,282.19l-12.18-54.57h11.74l3.87,23.56c.95,5.87,2.06,12.54,2.79,18.93h.2c.7-6.47,1.6-13.01,2.57-19.16l3.73-23.34h11.66l-12.47,54.57h-11.89Z"/>
  </g>
  <path class="cls-1" d="M194.14,304.77c1.52,0,1.53-2.37,0-2.37s-1.53,2.37,0,2.37h0Z"/>
</svg>