<?xml version="1.0" encoding="UTF-8"?>
<svg id="Layer_1" data-name="Layer 1" xmlns="http://www.w3.org/2000/svg" viewBox="0 0 382.68 382.68">
  <defs>
    <style>
      .cls-1 {
        fill: #acabad;
      }

      .cls-2 {
        fill: #3b3a3c;
      }

      .cls-3 {
        fill: #3c3c3d;
      }

      .cls-4 {
        fill: none;
        stroke: #3c3c3d;
        stroke-miterlimit: 10;
        stroke-width: 11px;
      }

      .cls-5 {
        opacity: .27;
      }
    </style>
  </defs>
  <g>
    <path class="cls-3" d="M94.59,344.73l-11.28-42.77h3.08l6.23,24.13c1.43,5.5,2.73,10.65,3.54,14.67h.16c.7-4,2.24-9.09,3.9-14.71l7.03-24.1h2.92l6.35,23.91c1.36,5.2,2.78,10.53,3.46,14.89h.14c.97-4.63,2.33-9.28,3.9-14.72l7.01-24.08h3.11l-12.82,42.77h-2.89l-6.46-24.62c-1.67-6.27-2.7-10.5-3.3-14.5h-.13c-.7,3.97-1.89,8.19-3.82,14.47l-7.27,24.65h-2.87Z"/>
    <path class="cls-3" d="M149.09,301.96v42.77h-3.01v-42.77h3.01Z"/>
    <path class="cls-3" d="M164.59,340c2.41,1.65,5.76,2.82,9.34,2.82,6.39,0,10.31-3.63,10.31-8.9,0-4.79-2.49-7.61-8.66-9.99-6.88-2.44-11.01-5.98-11.01-11.8,0-6.27,5.17-10.83,12.44-10.83,4.01,0,7.06,1.03,8.52,2.01l-1.17,2.54c-1.16-.81-3.89-2.03-7.55-2.03-6.9,0-9.25,4.43-9.25,7.79,0,4.74,2.74,7.17,8.87,9.57,7.06,2.86,10.8,6.06,10.8,12.47s-4.44,11.75-13.56,11.75c-3.7,0-8-1.21-10.22-2.87l1.14-2.52Z"/>
    <path class="cls-3" d="M221.97,323.47h-17.1v18.7h19.13v2.55h-22.14v-42.77h21.13v2.55h-18.12v16.4h17.1v2.55Z"/>
    <path class="cls-3" d="M247.46,304.5h-13.94v-2.54h30.9v2.54h-13.94v40.23h-3.01v-40.23Z"/>
    <path class="cls-3" d="M278.35,301.96v18.81h23.59v-18.81h3.01v42.77h-3.01v-21.4h-23.59v21.4h-3.01v-42.77h3.01Z"/>
  </g>
  <circle class="cls-4" cx="165.27" cy="96.97" r="66.23" transform="translate(-20.16 145.26) rotate(-45)"/>
  <path class="cls-1" d="M206.09,133.22c-22.32,20.42-56.97,18.88-77.39-3.44-16.76-18.32-18.72-44.95-6.53-65.2-16.19,20.69-15.56,50.64,2.76,70.67,20.42,22.32,55.07,23.86,77.39,3.44,4-3.66,7.31-7.77,9.97-12.19-1.85,2.37-3.91,4.62-6.2,6.71Z"/>
  <path class="cls-2" d="M215.07,154.73s7.97-3.98,13.94-13.94l56.77,47.8s8.96,14.94-1.99,21.91c0,0-10.95,5.98-19.92-1.99l-48.8-53.78Z"/>
  <g>
    <path class="cls-3" d="M23.52,228.43c2.63-.62,6.56-1.05,10.78-1.05,6.87,0,11.67,1.61,15.17,4.86,4.67,4.21,7.08,11.43,7.08,21.99s-2.84,18.88-7.57,23.12c-3.72,3.53-9.09,5.28-16.69,5.28-3.37,0-6.7-.34-8.77-.61v-53.59ZM34.09,273.77c.56.16,1.34.16,1.91.16,5.13,0,9.57-5,9.57-20.05,0-11.22-2.91-18.02-9.35-18.02-.75,0-1.47.03-2.12.26v37.65Z"/>
    <path class="cls-3" d="M99.13,258.2h-12.43v14.79h14.03v9.21h-24.66v-54.57h23.74v9.21h-13.1v12.55h12.43v8.82Z"/>
    <path class="cls-3" d="M126.63,237.45h-9.63v-9.83h29.95v9.83h-9.69v44.75h-10.63v-44.75Z"/>
    <path class="cls-3" d="M188.44,258.2h-12.43v14.79h14.03v9.21h-24.66v-54.57h23.74v9.21h-13.1v12.55h12.43v8.82Z"/>
    <path class="cls-3" d="M210.07,227.62h10.57v24.57h.23c.88-2.33,1.71-4.69,2.66-7.08l7.26-17.48h11.69l-12.24,23.76,12.4,30.81h-11.6l-7.95-22.58-2.46,4.45v18.13h-10.57v-54.57Z"/>
    <path class="cls-3" d="M265.9,237.45h-9.63v-9.83h29.95v9.83h-9.69v44.75h-10.63v-44.75Z"/>
    <path class="cls-3" d="M315.27,227.62v54.57h-10.63v-54.57h10.63Z"/>
    <path class="cls-3" d="M345.1,282.19l-12.18-54.57h11.74l3.87,23.56c.95,5.87,2.06,12.54,2.79,18.93h.2c.7-6.47,1.6-13.01,2.57-19.16l3.73-23.34h11.66l-12.47,54.57h-11.89Z"/>
  </g>
  <g class="cls-5">
    <g>
      <path class="cls-3" d="M121.04,103.96c-.06.64,0,1.57.36,2.41.38.91.95,1.23,1.52.99.54-.22.68-.77.61-1.97-.09-1.67.31-2.95,1.58-3.48,1.49-.62,3.13.16,3.98,2.21.41.99.51,1.79.49,2.41l-1.76.22c.02-.41.01-1.14-.34-1.99-.36-.86-.92-1.1-1.37-.92-.55.23-.6.81-.56,2.12.06,1.78-.44,2.83-1.67,3.34-1.46.6-3.17,0-4.16-2.39-.41-.99-.55-2.09-.48-2.69l1.79-.28Z"/>
      <path class="cls-3" d="M122.28,112.42l8.17-4.71,1.24,2.15-2.02,3.42c-.57.98-1.32,2.05-2.03,2.95l.02.03c1.01-.74,2.09-1.4,3.33-2.12l2.38-1.37.98,1.7-8.17,4.71-1.12-1.94,2.14-3.57c.6-1,1.34-2.14,2.07-3.08l-.03-.04c-1.05.68-2.19,1.37-3.53,2.14l-2.46,1.42-.98-1.7Z"/>
      <path class="cls-3" d="M127.81,121.64l1.42-.15c.14-1.21.82-2.37,1.9-3.26,2.13-1.76,4.92-1.7,6.67.41.49.59.81,1.25.95,1.92l1.36-.12.14,1.45-1.41.14c-.16,1.2-.86,2.31-1.88,3.16-2.38,1.96-5.03,1.66-6.69-.35-.47-.58-.78-1.21-.92-1.86l-1.5.14-.04-1.47ZM131.15,122.76c0,.35.14.69.4,1.01.95,1.15,2.53,1.01,4.01-.21.41-.34.76-.74,1.04-1.26v-.03s-5.45.49-5.45.49ZM136.94,120.76c-.02-.38-.17-.75-.44-1.07-.96-1.16-2.57-1-4,.18-.5.41-.83.84-1.11,1.38h.02s5.53-.5,5.53-.5Z"/>
      <path class="cls-3" d="M141.25,122.74l4.38,3.74-1.13,1.33-2.76-2.36-1.4,1.65,2.58,2.2-1.12,1.32-2.58-2.2-2.46,2.89-1.62-1.38,6.12-7.18Z"/>
      <path class="cls-3" d="M141.76,135.35l4.61-8.23,2.17,1.22.02,3.98c0,1.14-.09,2.44-.24,3.58h.03c.5-1.14,1.08-2.27,1.78-3.51l1.34-2.4,1.71.96-4.61,8.23-1.95-1.09v-4.16c.02-1.16.07-2.52.21-3.71l-.04-.02c-.55,1.12-1.18,2.3-1.94,3.65l-1.39,2.47-1.71-.96Z"/>
      <path class="cls-3" d="M156.29,131.96l-1.51,5.21c-.45,1.57-.08,2.54.96,2.84,1.08.31,1.89-.27,2.35-1.88l1.51-5.21,2.05.59-1.47,5.09c-.81,2.8-2.61,3.71-4.98,3.03-2.29-.66-3.25-2.32-2.42-5.2l1.47-5.06,2.05.59Z"/>
      <path class="cls-3" d="M169.98,143.25c-.68.18-1.94.39-3.18.29-1.72-.13-2.93-.65-3.73-1.55-.8-.88-1.18-2.14-1.07-3.53.25-3.13,2.66-4.74,5.74-4.51,1.22.09,2.13.39,2.58.65l-.57,1.67c-.51-.26-1.13-.49-2.16-.56-1.77-.13-3.2.76-3.35,2.81-.15,1.94,1,3.17,2.74,3.31.48.04.88,0,1.05-.05l.15-1.98-1.46-.11.12-1.66,3.51.26-.37,4.96Z"/>
      <path class="cls-3" d="M180.47,142.45c-.64.29-1.85.71-3.09.82-1.72.16-3-.15-3.94-.9-.94-.74-1.53-1.91-1.65-3.29-.28-3.13,1.83-5.12,4.9-5.41,1.21-.11,2.17.03,2.65.2l-.28,1.74c-.54-.18-1.19-.29-2.22-.19-1.77.17-3.02,1.29-2.83,3.33.18,1.94,1.51,2.96,3.25,2.8.48-.05.86-.14,1.03-.23l-.19-1.97-1.45.14-.16-1.66,3.5-.33.47,4.95Z"/>
    </g>
  </g>
</svg>